STARTFONT 2.1
COMMENT Exported by Fony v1.4.7
FONT DS-Digital-test
SIZE 42 96 96
FONTBOUNDINGBOX 30 41 0 -7
STARTPROPERTIES 6
COPYRIGHT ""
RESOLUTION_X 96
RESOLUTION_Y 96
FONT_ASCENT 35
FONT_DESCENT 7
DEFAULT_CHAR 0
ENDPROPERTIES
CHARS 256
STARTCHAR 000
ENCODING 0
SWIDTH 1584 0
DWIDTH 22 0
BBX 0 0 0 0
BITMAP
ENDCHAR
STARTCHAR 001
ENCODING 1
SWIDTH 1584 0
DWIDTH 22 0
BBX 10 28 1 0
BITMAP
FFC0
FFC0
E1C0
E1C0
E1C0
E1C0
E1C0
E1C0
E1C0
E1C0
E1C0
E1C0
E1C0
E1C0
E1C0
E1C0
E1C0
E1C0
E1C0
E1C0
E1C0
E1C0
E1C0
E1C0
E1C0
E1C0
FFC0
FFC0
ENDCHAR
STARTCHAR 002
ENCODING 2
SWIDTH 1584 0
DWIDTH 22 0
BBX 0 0 0 0
BITMAP
ENDCHAR
STARTCHAR 003
ENCODING 3
SWIDTH 1584 0
DWIDTH 22 0
BBX 10 28 1 0
BITMAP
FFC0
FFC0
E1C0
E1C0
E1C0
E1C0
E1C0
E1C0
E1C0
E1C0
E1C0
E1C0
E1C0
E1C0
E1C0
E1C0
E1C0
E1C0
E1C0
E1C0
E1C0
E1C0
E1C0
E1C0
E1C0
E1C0
FFC0
FFC0
ENDCHAR
STARTCHAR 004
ENCODING 4
SWIDTH 1584 0
DWIDTH 22 0
BBX 10 28 1 0
BITMAP
FFC0
FFC0
E1C0
E1C0
E1C0
E1C0
E1C0
E1C0
E1C0
E1C0
E1C0
E1C0
E1C0
E1C0
E1C0
E1C0
E1C0
E1C0
E1C0
E1C0
E1C0
E1C0
E1C0
E1C0
E1C0
E1C0
FFC0
FFC0
ENDCHAR
STARTCHAR 005
ENCODING 5
SWIDTH 1584 0
DWIDTH 22 0
BBX 10 28 1 0
BITMAP
FFC0
FFC0
E1C0
E1C0
E1C0
E1C0
E1C0
E1C0
E1C0
E1C0
E1C0
E1C0
E1C0
E1C0
E1C0
E1C0
E1C0
E1C0
E1C0
E1C0
E1C0
E1C0
E1C0
E1C0
E1C0
E1C0
FFC0
FFC0
ENDCHAR
STARTCHAR 006
ENCODING 6
SWIDTH 1584 0
DWIDTH 22 0
BBX 10 28 1 0
BITMAP
FFC0
FFC0
E1C0
E1C0
E1C0
E1C0
E1C0
E1C0
E1C0
E1C0
E1C0
E1C0
E1C0
E1C0
E1C0
E1C0
E1C0
E1C0
E1C0
E1C0
E1C0
E1C0
E1C0
E1C0
E1C0
E1C0
FFC0
FFC0
ENDCHAR
STARTCHAR 007
ENCODING 7
SWIDTH 1584 0
DWIDTH 22 0
BBX 10 28 1 0
BITMAP
FFC0
FFC0
E1C0
E1C0
E1C0
E1C0
E1C0
E1C0
E1C0
E1C0
E1C0
E1C0
E1C0
E1C0
E1C0
E1C0
E1C0
E1C0
E1C0
E1C0
E1C0
E1C0
E1C0
E1C0
E1C0
E1C0
FFC0
FFC0
ENDCHAR
STARTCHAR 008
ENCODING 8
SWIDTH 1584 0
DWIDTH 22 0
BBX 10 28 1 0
BITMAP
FFC0
FFC0
E1C0
E1C0
E1C0
E1C0
E1C0
E1C0
E1C0
E1C0
E1C0
E1C0
E1C0
E1C0
E1C0
E1C0
E1C0
E1C0
E1C0
E1C0
E1C0
E1C0
E1C0
E1C0
E1C0
E1C0
FFC0
FFC0
ENDCHAR
STARTCHAR 009
ENCODING 9
SWIDTH 1584 0
DWIDTH 22 0
BBX 0 0 0 0
BITMAP
ENDCHAR
STARTCHAR 010
ENCODING 10
SWIDTH 1584 0
DWIDTH 22 0
BBX 0 0 0 0
BITMAP
ENDCHAR
STARTCHAR 011
ENCODING 11
SWIDTH 1584 0
DWIDTH 22 0
BBX 10 28 1 0
BITMAP
FFC0
FFC0
E1C0
E1C0
E1C0
E1C0
E1C0
E1C0
E1C0
E1C0
E1C0
E1C0
E1C0
E1C0
E1C0
E1C0
E1C0
E1C0
E1C0
E1C0
E1C0
E1C0
E1C0
E1C0
E1C0
E1C0
FFC0
FFC0
ENDCHAR
STARTCHAR 012
ENCODING 12
SWIDTH 1584 0
DWIDTH 22 0
BBX 19 35 1 0
BITMAP
FFFFE0
800020
800020
800020
800020
800020
800020
800020
800020
800020
800020
800020
800020
800020
800020
800020
800020
800020
800020
800020
800020
800020
800020
800020
800020
800020
800020
800020
800020
800020
800020
800020
800020
800020
FFFFE0
ENDCHAR
STARTCHAR 013
ENCODING 13
SWIDTH 1584 0
DWIDTH 22 0
BBX 0 0 0 0
BITMAP
ENDCHAR
STARTCHAR 014
ENCODING 14
SWIDTH 1584 0
DWIDTH 22 0
BBX 10 28 1 0
BITMAP
FFC0
FFC0
E1C0
E1C0
E1C0
E1C0
E1C0
E1C0
E1C0
E1C0
E1C0
E1C0
E1C0
E1C0
E1C0
E1C0
E1C0
E1C0
E1C0
E1C0
E1C0
E1C0
E1C0
E1C0
E1C0
E1C0
FFC0
FFC0
ENDCHAR
STARTCHAR 015
ENCODING 15
SWIDTH 1584 0
DWIDTH 22 0
BBX 10 28 1 0
BITMAP
FFC0
FFC0
E1C0
E1C0
E1C0
E1C0
E1C0
E1C0
E1C0
E1C0
E1C0
E1C0
E1C0
E1C0
E1C0
E1C0
E1C0
E1C0
E1C0
E1C0
E1C0
E1C0
E1C0
E1C0
E1C0
E1C0
FFC0
FFC0
ENDCHAR
STARTCHAR 016
ENCODING 16
SWIDTH 1584 0
DWIDTH 22 0
BBX 10 28 1 0
BITMAP
FFC0
FFC0
E1C0
E1C0
E1C0
E1C0
E1C0
E1C0
E1C0
E1C0
E1C0
E1C0
E1C0
E1C0
E1C0
E1C0
E1C0
E1C0
E1C0
E1C0
E1C0
E1C0
E1C0
E1C0
E1C0
E1C0
FFC0
FFC0
ENDCHAR
STARTCHAR 017
ENCODING 17
SWIDTH 1584 0
DWIDTH 22 0
BBX 10 28 1 0
BITMAP
FFC0
FFC0
E1C0
E1C0
E1C0
E1C0
E1C0
E1C0
E1C0
E1C0
E1C0
E1C0
E1C0
E1C0
E1C0
E1C0
E1C0
E1C0
E1C0
E1C0
E1C0
E1C0
E1C0
E1C0
E1C0
E1C0
FFC0
FFC0
ENDCHAR
STARTCHAR 018
ENCODING 18
SWIDTH 1584 0
DWIDTH 22 0
BBX 10 28 1 0
BITMAP
FFC0
FFC0
E1C0
E1C0
E1C0
E1C0
E1C0
E1C0
E1C0
E1C0
E1C0
E1C0
E1C0
E1C0
E1C0
E1C0
E1C0
E1C0
E1C0
E1C0
E1C0
E1C0
E1C0
E1C0
E1C0
E1C0
FFC0
FFC0
ENDCHAR
STARTCHAR 019
ENCODING 19
SWIDTH 1584 0
DWIDTH 22 0
BBX 10 28 1 0
BITMAP
FFC0
FFC0
E1C0
E1C0
E1C0
E1C0
E1C0
E1C0
E1C0
E1C0
E1C0
E1C0
E1C0
E1C0
E1C0
E1C0
E1C0
E1C0
E1C0
E1C0
E1C0
E1C0
E1C0
E1C0
E1C0
E1C0
FFC0
FFC0
ENDCHAR
STARTCHAR 020
ENCODING 20
SWIDTH 1584 0
DWIDTH 22 0
BBX 10 28 1 0
BITMAP
FFC0
FFC0
E1C0
E1C0
E1C0
E1C0
E1C0
E1C0
E1C0
E1C0
E1C0
E1C0
E1C0
E1C0
E1C0
E1C0
E1C0
E1C0
E1C0
E1C0
E1C0
E1C0
E1C0
E1C0
E1C0
E1C0
FFC0
FFC0
ENDCHAR
STARTCHAR 021
ENCODING 21
SWIDTH 1584 0
DWIDTH 22 0
BBX 10 28 1 0
BITMAP
FFC0
FFC0
E1C0
E1C0
E1C0
E1C0
E1C0
E1C0
E1C0
E1C0
E1C0
E1C0
E1C0
E1C0
E1C0
E1C0
E1C0
E1C0
E1C0
E1C0
E1C0
E1C0
E1C0
E1C0
E1C0
E1C0
FFC0
FFC0
ENDCHAR
STARTCHAR 022
ENCODING 22
SWIDTH 1584 0
DWIDTH 22 0
BBX 10 28 1 0
BITMAP
FFC0
FFC0
E1C0
E1C0
E1C0
E1C0
E1C0
E1C0
E1C0
E1C0
E1C0
E1C0
E1C0
E1C0
E1C0
E1C0
E1C0
E1C0
E1C0
E1C0
E1C0
E1C0
E1C0
E1C0
E1C0
E1C0
FFC0
FFC0
ENDCHAR
STARTCHAR 023
ENCODING 23
SWIDTH 1584 0
DWIDTH 22 0
BBX 10 28 1 0
BITMAP
FFC0
FFC0
E1C0
E1C0
E1C0
E1C0
E1C0
E1C0
E1C0
E1C0
E1C0
E1C0
E1C0
E1C0
E1C0
E1C0
E1C0
E1C0
E1C0
E1C0
E1C0
E1C0
E1C0
E1C0
E1C0
E1C0
FFC0
FFC0
ENDCHAR
STARTCHAR 024
ENCODING 24
SWIDTH 1584 0
DWIDTH 22 0
BBX 10 28 1 0
BITMAP
FFC0
FFC0
E1C0
E1C0
E1C0
E1C0
E1C0
E1C0
E1C0
E1C0
E1C0
E1C0
E1C0
E1C0
E1C0
E1C0
E1C0
E1C0
E1C0
E1C0
E1C0
E1C0
E1C0
E1C0
E1C0
E1C0
FFC0
FFC0
ENDCHAR
STARTCHAR 025
ENCODING 25
SWIDTH 1584 0
DWIDTH 22 0
BBX 10 28 1 0
BITMAP
FFC0
FFC0
E1C0
E1C0
E1C0
E1C0
E1C0
E1C0
E1C0
E1C0
E1C0
E1C0
E1C0
E1C0
E1C0
E1C0
E1C0
E1C0
E1C0
E1C0
E1C0
E1C0
E1C0
E1C0
E1C0
E1C0
FFC0
FFC0
ENDCHAR
STARTCHAR 026
ENCODING 26
SWIDTH 1584 0
DWIDTH 22 0
BBX 10 28 1 0
BITMAP
FFC0
FFC0
E1C0
E1C0
E1C0
E1C0
E1C0
E1C0
E1C0
E1C0
E1C0
E1C0
E1C0
E1C0
E1C0
E1C0
E1C0
E1C0
E1C0
E1C0
E1C0
E1C0
E1C0
E1C0
E1C0
E1C0
FFC0
FFC0
ENDCHAR
STARTCHAR 027
ENCODING 27
SWIDTH 1584 0
DWIDTH 22 0
BBX 10 28 1 0
BITMAP
FFC0
FFC0
E1C0
E1C0
E1C0
E1C0
E1C0
E1C0
E1C0
E1C0
E1C0
E1C0
E1C0
E1C0
E1C0
E1C0
E1C0
E1C0
E1C0
E1C0
E1C0
E1C0
E1C0
E1C0
E1C0
E1C0
FFC0
FFC0
ENDCHAR
STARTCHAR 028
ENCODING 28
SWIDTH 1584 0
DWIDTH 22 0
BBX 0 0 0 0
BITMAP
ENDCHAR
STARTCHAR 029
ENCODING 29
SWIDTH 1584 0
DWIDTH 22 0
BBX 0 0 0 0
BITMAP
ENDCHAR
STARTCHAR 030
ENCODING 30
SWIDTH 1584 0
DWIDTH 22 0
BBX 0 0 0 0
BITMAP
ENDCHAR
STARTCHAR 031
ENCODING 31
SWIDTH 1584 0
DWIDTH 22 0
BBX 0 0 0 0
BITMAP
ENDCHAR
STARTCHAR 032
ENCODING 32
SWIDTH 720 0
DWIDTH 10 0
BBX 0 0 0 0
BITMAP
ENDCHAR
STARTCHAR 033
ENCODING 33
SWIDTH 864 0
DWIDTH 12 0
BBX 4 32 4 -5
BITMAP
10
30
70
F0
F0
F0
F0
F0
F0
F0
F0
70
20
00
00
20
70
F0
F0
F0
F0
F0
F0
F0
70
30
10
00
F0
F0
F0
F0
ENDCHAR
STARTCHAR 034
ENCODING 34
SWIDTH 936 0
DWIDTH 13 0
BBX 10 7 2 20
BITMAP
F3C0
F3C0
F3C0
F3C0
F3C0
F3C0
6180
ENDCHAR
STARTCHAR 035
ENCODING 35
SWIDTH 1872 0
DWIDTH 26 0
BBX 22 24 2 1
BITMAP
010200
038700
078780
078780
078780
078780
3B3370
7E7AF8
FCFDFC
797A78
038700
078780
078780
078780
3B3370
7C78F8
7CFCF8
397A70
038700
078780
078780
078780
038700
010200
ENDCHAR
STARTCHAR 036
ENCODING 36
SWIDTH 1584 0
DWIDTH 22 0
BBX 17 38 2 -5
BITMAP
018000
03C000
03C000
03C000
03C000
000000
0FFF00
1FFF80
1FFF00
6FFE00
F00000
F00000
F00000
F00000
F00000
F00000
F00000
EFF800
5FFC00
3FFC00
0FF900
000380
000780
000780
000780
000780
000780
000780
000300
7FF800
FFFC00
FFFC00
7FF800
000000
03C000
03C000
03C000
018000
ENDCHAR
STARTCHAR 037
ENCODING 37
SWIDTH 2160 0
DWIDTH 30 0
BBX 26 31 2 -2
BITMAP
00000700
00003E00
0F003E00
1F807C00
0F007800
6660F800
F0F0F000
F0F1F000
F0F3E000
F0F3E000
6663C000
0F038000
1F838000
0F020000
06000000
000C0000
003C3800
007C7C00
00787C00
00F9B900
01F3C380
01F3C3C0
03E3C3C0
03C3C3C0
07C18380
07803D00
0F807E00
07003C00
07001800
06000000
04000000
ENDCHAR
STARTCHAR 038
ENCODING 38
SWIDTH 1656 0
DWIDTH 23 0
BBX 21 27 2 0
BITMAP
0FF800
1FFC00
7FFC00
FFF800
F00000
F00000
F00300
F00780
F00780
F00780
E00380
4FF930
1FFC78
1FFC78
4FF930
E00380
F00780
F00780
F00780
F00780
F00780
F00780
F00300
6FF800
1FFC00
1FFC00
0FF800
ENDCHAR
STARTCHAR 039
ENCODING 39
SWIDTH 576 0
DWIDTH 8 0
BBX 4 7 2 20
BITMAP
F0
F0
F0
F0
F0
F0
60
ENDCHAR
STARTCHAR 040
ENCODING 40
SWIDTH 936 0
DWIDTH 13 0
BBX 10 27 2 0
BITMAP
0FC0
1F80
1F00
6E00
F000
F000
F000
F000
F000
F000
F000
E000
4000
0000
4000
E000
F000
F000
F000
F000
F000
F000
7000
2E00
1F00
1F80
0FC0
ENDCHAR
STARTCHAR 041
ENCODING 41
SWIDTH 936 0
DWIDTH 13 0
BBX 11 27 1 0
BITMAP
FC00
3F00
1E00
0CC0
01E0
01E0
01E0
01E0
01E0
01E0
00E0
0040
0000
0000
0040
00E0
01E0
01E0
01E0
01E0
01E0
01E0
01E0
0EC0
1F00
3F00
7C00
ENDCHAR
STARTCHAR 042
ENCODING 42
SWIDTH 1512 0
DWIDTH 21 0
BBX 18 20 2 7
BITMAP
00C000
01E000
01E000
01E000
F1E780
FDEF80
7CDF80
7EFF00
1F3C00
000000
1F1E00
7E1F80
7CCF80
FCCFC0
F1E3C0
01E000
01E000
01E000
01E000
00C000
ENDCHAR
STARTCHAR 043
ENCODING 43
SWIDTH 1440 0
DWIDTH 20 0
BBX 16 17 2 5
BITMAP
0180
03C0
03C0
03C0
03C0
03C0
7DBC
FF7E
7EFF
3CBE
01C0
03C0
03C0
03C0
03C0
0380
0180
ENDCHAR
STARTCHAR 044
ENCODING 44
SWIDTH 576 0
DWIDTH 8 0
BBX 4 6 2 -3
BITMAP
F0
F0
F0
F0
F0
60
ENDCHAR
STARTCHAR 045
ENCODING 45
SWIDTH 1440 0
DWIDTH 20 0
BBX 16 4 2 12
BITMAP
7FFE
FFFF
FFFF
7FFE
ENDCHAR
STARTCHAR 046
ENCODING 46
SWIDTH 576 0
DWIDTH 8 0
BBX 4 4 2 0
BITMAP
F0
F0
F0
F0
ENDCHAR
STARTCHAR 047
ENCODING 47
SWIDTH 1512 0
DWIDTH 21 0
BBX 19 29 1 -1
BITMAP
0000E0
0007C0
0007C0
000F80
000F00
001F00
003E00
003E00
007C00
007800
007800
007000
006000
000000
008000
078000
0F8000
0F0000
1F0000
3E0000
3E0000
7C0000
780000
F80000
F00000
E00000
600000
400000
400000
ENDCHAR
STARTCHAR 048
ENCODING 48
SWIDTH 1584 0
DWIDTH 22 0
BBX 17 27 2 0
BITMAP
7FFF00
FFFF80
FFFF80
FFFF80
F00780
F00780
F00780
F00780
F00780
F00780
F00780
F00780
F00780
F00780
F00780
F00780
F00780
F00780
F00780
F00780
F00780
F00780
F00780
FFFF80
FFFF80
FFFF80
7FFF00
ENDCHAR
STARTCHAR 049
ENCODING 49
SWIDTH 1584 0
DWIDTH 22 0
BBX 4 25 9 1
BITMAP
10
30
70
F0
F0
F0
F0
F0
F0
F0
F0
F0
F0
F0
F0
F0
F0
F0
F0
F0
F0
F0
70
30
10
ENDCHAR
STARTCHAR 050
ENCODING 50
SWIDTH 1584 0
DWIDTH 22 0
BBX 17 27 2 0
BITMAP
7FFF00
3FFF80
1FFF80
0FFF80
000780
000780
000780
000780
000780
000780
000780
1FFF80
3FFF00
7FFE00
FFFC00
F00000
F00000
F00000
F00000
F00000
F00000
F00000
F00000
FFF800
FFFC00
FFFE00
7FFF00
ENDCHAR
STARTCHAR 051
ENCODING 51
SWIDTH 1584 0
DWIDTH 22 0
BBX 16 27 4 0
BITMAP
FFFC
7FF9
3FF3
1FE7
000F
000F
000F
000F
000F
000F
0007
3FF2
7FF8
7FF8
3FF2
0007
000F
000F
000F
000F
000F
000F
000F
1FE7
3FF3
7FF9
FFFC
ENDCHAR
STARTCHAR 052
ENCODING 52
SWIDTH 1584 0
DWIDTH 22 0
BBX 17 25 2 1
BITMAP
800080
C00180
E00380
F00780
F00780
F00780
F00780
F00780
F00780
E00380
4FF900
1FFC00
1FFC00
0FF900
000380
000780
000780
000780
000780
000780
000780
000780
000380
000180
000080
ENDCHAR
STARTCHAR 053
ENCODING 53
SWIDTH 1584 0
DWIDTH 22 0
BBX 17 27 2 0
BITMAP
7FFF00
BFFE00
DFFC00
EFF800
F00000
F00000
F00000
F00000
F00000
F00000
F00000
EFF800
5FFC00
3FFC00
0FF900
000380
000780
000780
000780
000780
000780
000780
000780
0FFB80
1FFD80
3FFE80
7FFF00
ENDCHAR
STARTCHAR 054
ENCODING 54
SWIDTH 1584 0
DWIDTH 22 0
BBX 17 27 2 0
BITMAP
7FFF00
BFFE00
DFFC00
EFF800
F00000
F00000
F00000
F00000
F00000
F00000
E00000
4FF800
1FFC00
1FFC00
4FF900
E00380
F00780
F00780
F00780
F00780
F00780
F00780
F00780
EFFB80
DFFD80
BFFE80
7FFF00
ENDCHAR
STARTCHAR 055
ENCODING 55
SWIDTH 1584 0
DWIDTH 22 0
BBX 16 26 4 1
BITMAP
FFFC
7FF9
3FF3
1FE7
000F
000F
000F
000F
000F
000F
0007
0002
0000
0000
0002
0007
000F
000F
000F
000F
000F
000F
000F
0007
0003
0001
ENDCHAR
STARTCHAR 056
ENCODING 56
SWIDTH 1584 0
DWIDTH 22 0
BBX 17 27 2 0
BITMAP
7FFF00
BFFE80
DFFD80
EFFB80
F00780
F00780
F00780
F00780
F00780
F00780
E00380
4FF900
1FFC00
1FFC00
4FF900
E00380
F00780
F00780
F00780
F00780
F00780
F00780
F00780
EFFB80
DFFD80
BFFE80
7FFF00
ENDCHAR
STARTCHAR 057
ENCODING 57
SWIDTH 1584 0
DWIDTH 22 0
BBX 17 27 2 0
BITMAP
7FFF00
BFFE80
DFFD80
EFFB80
F00780
F00780
F00780
F00780
F00780
F00780
E00380
4FF900
1FFC00
1FFC00
0FF900
000380
000780
000780
000780
000780
000780
000780
000780
0FFB80
1FFD80
3FFE80
7FFF00
ENDCHAR
STARTCHAR 058
ENCODING 58
SWIDTH 720 0
DWIDTH 10 0
BBX 4 23 2 0
BITMAP
F0
F0
F0
F0
00
00
00
00
00
00
00
00
00
00
00
00
00
00
00
F0
F0
F0
F0
ENDCHAR
STARTCHAR 059
ENCODING 59
SWIDTH 720 0
DWIDTH 10 0
BBX 4 26 2 -3
BITMAP
F0
F0
F0
F0
00
00
00
00
00
00
00
00
00
00
00
00
00
00
00
00
F0
F0
F0
F0
F0
60
ENDCHAR
STARTCHAR 060
ENCODING 60
SWIDTH 1080 0
DWIDTH 15 0
BBX 11 19 2 4
BITMAP
00E0
01E0
03E0
07E0
0FC0
1F80
3F00
7E00
FC00
0000
FC00
7E00
3F00
1F80
0FC0
07E0
03E0
01E0
00E0
ENDCHAR
STARTCHAR 061
ENCODING 61
SWIDTH 1440 0
DWIDTH 20 0
BBX 16 11 2 8
BITMAP
7FFE
FFFF
FFFF
7FFE
0000
0000
0000
7FFE
FFFF
FFFF
7FFE
ENDCHAR
STARTCHAR 062
ENCODING 62
SWIDTH 1080 0
DWIDTH 15 0
BBX 11 19 2 4
BITMAP
E000
F000
F800
7C00
3E00
1F00
1F80
0FC0
07E0
0000
07E0
0FC0
1F80
3F00
3E00
7C00
F800
F000
E000
ENDCHAR
STARTCHAR 063
ENCODING 63
SWIDTH 1584 0
DWIDTH 22 0
BBX 17 32 2 -5
BITMAP
FFF800
7FFC00
3FFC00
1FFB00
000780
000780
000780
000780
000780
000780
000780
0FFB80
1FFD00
7FFE00
EFF800
F00000
F00000
F00000
F00000
F00000
F00000
F00000
E00000
C00000
800000
000000
000000
000000
F00000
F00000
F00000
F00000
ENDCHAR
STARTCHAR 064
ENCODING 64
SWIDTH 1872 0
DWIDTH 26 0
BBX 22 27 2 0
BITMAP
0FFFF8
1FFFF4
0FFFEC
67FFDC
F0003C
F0003C
F0001C
F03FC8
F07FE0
F03FE0
F19FC8
61C01C
01E03C
01E03C
41E03C
E1E03C
F0DF9C
F0BFCC
F07FE4
F01FF0
F00000
F00000
700000
27FFF8
0FFFFC
0FFFFC
07FFF8
ENDCHAR
STARTCHAR 065
ENCODING 65
SWIDTH 1584 0
DWIDTH 22 0
BBX 17 27 2 0
BITMAP
7FFF00
BFFE80
DFFD80
EFFB80
F00780
F00780
F00780
F00780
F00780
F00780
E00380
4FF900
1FFC00
1FFC00
4FF900
E00380
F00780
F00780
F00780
F00780
F00780
F00780
F00780
F00380
E00180
C00080
800000
ENDCHAR
STARTCHAR 066
ENCODING 66
SWIDTH 1584 0
DWIDTH 22 0
BBX 17 27 2 0
BITMAP
7FF800
BFFC00
DFFF00
EFFF80
F00780
F00780
F00780
F00780
F00780
F00780
E00380
4FF900
1FFC00
1FFC00
4FF900
E00380
F00780
F00780
F00780
F00780
F00780
F00780
F00300
EFF800
DFFC00
BFFC00
7FF800
ENDCHAR
STARTCHAR 067
ENCODING 67
SWIDTH 1584 0
DWIDTH 22 0
BBX 17 27 2 0
BITMAP
0FFF80
1FFF00
1FFE00
6FFC00
F00000
F00000
F00000
F00000
F00000
F00000
F00000
E00000
400000
000000
400000
E00000
F00000
F00000
F00000
F00000
F00000
F00000
700000
2FFC00
1FFE00
1FFF00
0FFF80
ENDCHAR
STARTCHAR 068
ENCODING 68
SWIDTH 1584 0
DWIDTH 22 0
BBX 17 27 2 0
BITMAP
7FF800
BFFC00
DFFF00
EFFF80
F00780
F00780
F00780
F00780
F00780
F00780
E00380
400100
000000
000000
400100
E00380
F00780
F00780
F00780
F00780
F00780
F00780
F00300
EFF800
DFFC00
BFFC00
7FF800
ENDCHAR
STARTCHAR 069
ENCODING 69
SWIDTH 1584 0
DWIDTH 22 0
BBX 17 27 2 0
BITMAP
7FFF80
BFFF00
DFFE00
EFFC00
F00000
F00000
F00000
F00000
F00000
F00000
E00000
4FF800
1FFC00
1FFC00
4FF800
E00000
F00000
F00000
F00000
F00000
F00000
F00000
F00000
EFFC00
DFFE00
BFFF00
7FFF80
ENDCHAR
STARTCHAR 070
ENCODING 70
SWIDTH 1584 0
DWIDTH 22 0
BBX 17 26 2 1
BITMAP
7FFF80
BFFF00
DFFE00
EFFC00
F00000
F00000
F00000
F00000
F00000
F00000
E00000
4FF800
1FFC00
1FFC00
4FF800
E00000
F00000
F00000
F00000
F00000
F00000
F00000
F00000
E00000
C00000
800000
ENDCHAR
STARTCHAR 071
ENCODING 71
SWIDTH 1584 0
DWIDTH 22 0
BBX 17 27 2 0
BITMAP
0FFF00
1FFE00
7FFC00
6FF800
F00000
F00000
F00000
F00000
F00000
F00000
E00000
40F800
01FC00
01FC00
40F900
E00380
F00780
F00780
F00780
F00780
F00780
F00780
F00780
6FFB00
1FFC00
1FFC00
0FF800
ENDCHAR
STARTCHAR 072
ENCODING 72
SWIDTH 1584 0
DWIDTH 22 0
BBX 17 27 2 0
BITMAP
800080
C00180
E00380
F00780
F00780
F00780
F00780
F00780
F00780
F00780
E00380
4FF900
1FFC00
1FFC00
4FF900
E00380
F00780
F00780
F00780
F00780
F00780
F00780
F00780
F00380
E00180
C00080
800000
ENDCHAR
STARTCHAR 073
ENCODING 73
SWIDTH 864 0
DWIDTH 12 0
BBX 4 27 4 0
BITMAP
10
30
70
F0
F0
F0
F0
F0
F0
F0
70
20
00
00
20
70
F0
F0
F0
F0
F0
F0
F0
F0
70
30
10
ENDCHAR
STARTCHAR 074
ENCODING 74
SWIDTH 1584 0
DWIDTH 22 0
BBX 17 27 2 0
BITMAP
000080
000180
000380
000780
000780
000780
000780
000780
000780
000780
000380
000100
000000
000000
000100
000380
400780
E00780
F00780
F00780
F00780
F00780
F00300
6FF800
1FFC00
1FFC00
0FF800
ENDCHAR
STARTCHAR 075
ENCODING 75
SWIDTH 1584 0
DWIDTH 22 0
BBX 17 27 2 0
BITMAP
800F00
C01F00
E03F00
F07E00
F0FC00
F1F800
F3F000
F7E000
F7C000
F70000
E00000
4FF800
1FFC00
1FFC00
4FF900
E00380
F00780
F00780
F00780
F00780
F00780
F00780
F00780
F00380
E00180
C00080
800000
ENDCHAR
STARTCHAR 076
ENCODING 76
SWIDTH 1584 0
DWIDTH 22 0
BBX 17 27 2 0
BITMAP
800000
C00000
E00000
F00000
F00000
F00000
F00000
F00000
F00000
F00000
E00000
400000
000000
000000
400000
E00000
F00000
F00000
F00000
F00000
F00000
F00000
F00000
EFFC00
DFFE00
BFFF00
7FFF80
ENDCHAR
STARTCHAR 077
ENCODING 77
SWIDTH 1584 0
DWIDTH 22 0
BBX 17 27 2 0
BITMAP
7FFF00
BFFE80
DFFD80
EFFB80
F00780
F04780
F1E780
F1E780
F1E780
F1E780
E1E380
41E100
01E000
01E000
41E100
E0C380
F00780
F00780
F00780
F00780
F00780
F00780
F00780
F00380
E00180
C00080
800000
ENDCHAR
STARTCHAR 078
ENCODING 78
SWIDTH 1584 0
DWIDTH 22 0
BBX 17 27 2 0
BITMAP
FF0080
DF8180
CF8380
E7C780
F3E780
F1F780
F0F780
F07780
F00780
F00780
E00380
400100
000000
000000
400100
E00380
F00780
F00780
F00780
F00780
F00780
F00780
F00780
F00380
E00180
C00080
800000
ENDCHAR
STARTCHAR 079
ENCODING 79
SWIDTH 1584 0
DWIDTH 22 0
BBX 17 27 2 0
BITMAP
0FF800
1FFC00
7FFF00
FFFF80
F00780
F00780
F00780
F00780
F00780
F00780
E00380
400100
000000
000000
400100
E00380
F00780
F00780
F00780
F00780
F00780
F00780
F00300
6FF800
1FFC00
1FFC00
0FF800
ENDCHAR
STARTCHAR 080
ENCODING 80
SWIDTH 1584 0
DWIDTH 22 0
BBX 17 27 2 0
BITMAP
7FF800
BFFC00
DFFF00
EFFF80
F00780
F00780
F00780
F00780
F00780
F00780
E00380
4FF900
1FFC00
1FFC00
4FF800
E00000
F00000
F00000
F00000
F00000
F00000
F00000
F00000
F00000
E00000
C00000
800000
ENDCHAR
STARTCHAR 081
ENCODING 81
SWIDTH 1584 0
DWIDTH 22 0
BBX 17 27 2 0
BITMAP
0FF800
1FFC00
1FFC00
6FFB00
F00780
F00780
F00780
F00780
F00780
F00780
E00380
400100
000000
400000
E00100
F00380
F00780
F00780
F00780
F03B00
F03E00
F03E00
703F00
279F80
0FCF80
0FC780
078380
ENDCHAR
STARTCHAR 082
ENCODING 82
SWIDTH 1584 0
DWIDTH 22 0
BBX 17 27 2 0
BITMAP
7FF800
BFFC00
DFFF00
EFFF80
F00780
F00780
F00780
F00780
F00780
F00780
E00380
4FF900
1FFC00
1FFC00
4FF800
E00000
F38000
F3C000
F3E000
F3F000
F1F800
F0FC00
F07E00
E03F00
C01F80
800F80
000780
ENDCHAR
STARTCHAR 083
ENCODING 83
SWIDTH 1584 0
DWIDTH 22 0
BBX 17 27 2 0
BITMAP
0FFF00
1FFF80
1FFF00
6FFE00
F00000
F00000
F00000
F00000
F00000
F00000
F00000
EFF800
5FFC00
3FFC00
0FF900
000380
000780
000780
000780
000780
000780
000780
000300
7FF800
FFFC00
7FFC00
3FF800
ENDCHAR
STARTCHAR 084
ENCODING 84
SWIDTH 1584 0
DWIDTH 22 0
BBX 18 27 2 0
BITMAP
7FFF80
FFFFC0
FFFFC0
7FFF80
000000
000000
00C000
01E000
01E000
01E000
01E000
00E000
004000
000000
000000
004000
00E000
01E000
01E000
01E000
01E000
01E000
01E000
01E000
01E000
01E000
00C000
ENDCHAR
STARTCHAR 085
ENCODING 85
SWIDTH 1584 0
DWIDTH 22 0
BBX 17 27 2 0
BITMAP
800080
C00180
E00380
F00780
F00780
F00780
F00780
F00780
F00780
F00780
E00380
400100
000000
000000
400100
E00380
F00780
F00780
F00780
F00780
F00780
F00780
F00300
6FF800
1FFC00
1FFC00
0FF800
ENDCHAR
STARTCHAR 086
ENCODING 86
SWIDTH 1512 0
DWIDTH 21 0
BBX 17 27 2 0
BITMAP
800080
C00180
E00380
F00780
F00780
F00780
F00780
F00780
F00780
F00780
E00380
400100
000000
000000
400600
E00E00
F01E00
F03E00
F07C00
F0F800
F1F000
F3E000
F7E000
F7C000
F78000
F00000
600000
ENDCHAR
STARTCHAR 087
ENCODING 87
SWIDTH 1584 0
DWIDTH 22 0
BBX 17 27 2 0
BITMAP
800080
C00180
E00380
F00780
F00780
F00780
F00780
F00780
F00780
F00780
E0C380
41E100
01E000
01E000
41E100
E1E380
F1E780
F1E780
F1E780
F1E780
F0C780
F04780
F00780
EFFB80
DFFD80
BFFE80
7FFF00
ENDCHAR
STARTCHAR 088
ENCODING 88
SWIDTH 1512 0
DWIDTH 21 0
BBX 18 27 2 0
BITMAP
E001C0
F003C0
F003C0
F807C0
7C0F80
7C0F00
3E1F00
1F3E00
1F3C00
0F3C00
073800
073000
033000
000000
033000
073800
073C00
0F3C00
1F3E00
1E1E00
3E1F00
7C0F80
780F80
F807C0
F003C0
E003C0
E001C0
ENDCHAR
STARTCHAR 089
ENCODING 89
SWIDTH 1584 0
DWIDTH 22 0
BBX 17 27 2 0
BITMAP
800080
C00180
E00380
F00780
F00780
F00780
F00780
F00780
F00780
F00780
F00380
EFF900
5FFC00
3FFC00
0FF900
000380
000780
000780
000780
000780
000780
000780
000300
1FF800
3FFC00
3FFC00
1FF800
ENDCHAR
STARTCHAR 090
ENCODING 90
SWIDTH 1584 0
DWIDTH 22 0
BBX 16 27 3 0
BITMAP
FFFE
7FFF
3FFF
1FFE
0000
001E
001E
003E
007C
00F8
00F8
00F0
00E0
0000
0E00
0E00
1F00
3E00
3E00
7C00
7800
7800
0000
7FF8
FFFC
FFFE
7FFF
ENDCHAR
STARTCHAR 091
ENCODING 91
SWIDTH 936 0
DWIDTH 13 0
BBX 10 27 2 0
BITMAP
7FC0
BF80
DF00
EE00
F000
F000
F000
F000
F000
F000
E000
4000
0000
0000
4000
E000
F000
F000
F000
F000
F000
F000
F000
EE00
DF00
BF80
7FC0
ENDCHAR
STARTCHAR 092
ENCODING 92
SWIDTH 1512 0
DWIDTH 21 0
BBX 19 29 1 -1
BITMAP
F00000
7C0000
7C0000
3E0000
1E0000
1F0000
0F8000
078000
07C000
03E000
03C000
01C000
00C000
000000
000000
003C00
003E00
001E00
001F00
000F80
000780
0007C0
0003E0
0003E0
0001E0
0000E0
0000C0
000040
000040
ENDCHAR
STARTCHAR 093
ENCODING 93
SWIDTH 936 0
DWIDTH 13 0
BBX 10 27 2 0
BITMAP
FF00
7E40
3CC0
19C0
03C0
03C0
03C0
03C0
03C0
03C0
01C0
0080
0000
0000
0080
01C0
03C0
03C0
03C0
03C0
03C0
03C0
03C0
1DC0
3EC0
7F40
FF80
ENDCHAR
STARTCHAR 094
ENCODING 94
SWIDTH 1440 0
DWIDTH 20 0
BBX 16 10 2 17
BITMAP
0280
06C0
0EE0
1EF0
3EF8
3EFC
7C7E
F83F
F00F
E007
ENDCHAR
STARTCHAR 095
ENCODING 95
SWIDTH 1440 0
DWIDTH 20 0
BBX 19 4 1 -7
BITMAP
7FFFC0
FFFFE0
FFFFE0
7FFFC0
ENDCHAR
STARTCHAR 096
ENCODING 96
SWIDTH 720 0
DWIDTH 10 0
BBX 7 8 2 20
BITMAP
30
F0
F8
7C
7C
3E
1C
0C
ENDCHAR
STARTCHAR 097
ENCODING 97
SWIDTH 1584 0
DWIDTH 22 0
BBX 17 27 2 0
BITMAP
7FFF00
BFFE80
DFFD80
EFFB80
F00780
F00780
F00780
F00780
F00780
F00780
E00380
4FF900
1FFC00
1FFC00
4FF900
E00380
F00780
F00780
F00780
F00780
F00780
F00780
F00780
F00380
E00180
C00080
800000
ENDCHAR
STARTCHAR 098
ENCODING 98
SWIDTH 1584 0
DWIDTH 22 0
BBX 17 27 2 0
BITMAP
7FF800
BFFC00
DFFF00
EFFF80
F00780
F00780
F00780
F00780
F00780
F00780
E00380
4FF900
1FFC00
1FFC00
4FF900
E00380
F00780
F00780
F00780
F00780
F00780
F00780
F00300
EFF800
DFFC00
BFFC00
7FF800
ENDCHAR
STARTCHAR 099
ENCODING 99
SWIDTH 1584 0
DWIDTH 22 0
BBX 17 27 2 0
BITMAP
0FFF80
1FFF00
1FFE00
6FFC00
F00000
F00000
F00000
F00000
F00000
F00000
F00000
E00000
400000
000000
400000
E00000
F00000
F00000
F00000
F00000
F00000
F00000
700000
2FFC00
1FFE00
1FFF00
0FFF80
ENDCHAR
STARTCHAR 100
ENCODING 100
SWIDTH 1584 0
DWIDTH 22 0
BBX 17 27 2 0
BITMAP
7FF800
BFFC00
DFFF00
EFFF80
F00780
F00780
F00780
F00780
F00780
F00780
E00380
400100
000000
000000
400100
E00380
F00780
F00780
F00780
F00780
F00780
F00780
F00300
EFF800
DFFC00
BFFC00
7FF800
ENDCHAR
STARTCHAR 101
ENCODING 101
SWIDTH 1584 0
DWIDTH 22 0
BBX 17 27 2 0
BITMAP
7FFF80
BFFF00
DFFE00
EFFC00
F00000
F00000
F00000
F00000
F00000
F00000
E00000
4FF800
1FFC00
1FFC00
4FF800
E00000
F00000
F00000
F00000
F00000
F00000
F00000
F00000
EFFC00
DFFE00
BFFF00
7FFF80
ENDCHAR
STARTCHAR 102
ENCODING 102
SWIDTH 1584 0
DWIDTH 22 0
BBX 17 26 2 1
BITMAP
7FFF80
BFFF00
DFFE00
EFFC00
F00000
F00000
F00000
F00000
F00000
F00000
E00000
4FF800
1FFC00
1FFC00
4FF800
E00000
F00000
F00000
F00000
F00000
F00000
F00000
F00000
E00000
C00000
800000
ENDCHAR
STARTCHAR 103
ENCODING 103
SWIDTH 1584 0
DWIDTH 22 0
BBX 17 27 2 0
BITMAP
0FFF00
1FFE00
7FFC00
6FF800
F00000
F00000
F00000
F00000
F00000
F00000
E00000
40F800
01FC00
01FC00
40F900
E00380
F00780
F00780
F00780
F00780
F00780
F00780
F00780
6FFB00
1FFC00
1FFC00
0FF800
ENDCHAR
STARTCHAR 104
ENCODING 104
SWIDTH 1584 0
DWIDTH 22 0
BBX 17 27 2 0
BITMAP
800080
C00180
E00380
F00780
F00780
F00780
F00780
F00780
F00780
F00780
E00380
4FF900
1FFC00
1FFC00
4FF900
E00380
F00780
F00780
F00780
F00780
F00780
F00780
F00780
F00380
E00180
C00080
800000
ENDCHAR
STARTCHAR 105
ENCODING 105
SWIDTH 864 0
DWIDTH 12 0
BBX 4 27 4 0
BITMAP
10
30
70
F0
F0
F0
F0
F0
F0
F0
70
20
00
00
20
70
F0
F0
F0
F0
F0
F0
F0
F0
70
30
10
ENDCHAR
STARTCHAR 106
ENCODING 106
SWIDTH 1584 0
DWIDTH 22 0
BBX 17 27 2 0
BITMAP
000080
000180
000380
000780
000780
000780
000780
000780
000780
000780
000380
000100
000000
000000
000100
000380
400780
E00780
F00780
F00780
F00780
F00780
F00300
6FF800
1FFC00
1FFC00
0FF800
ENDCHAR
STARTCHAR 107
ENCODING 107
SWIDTH 1584 0
DWIDTH 22 0
BBX 17 27 2 0
BITMAP
800F00
C01F00
E03F00
F07E00
F0FC00
F1F800
F3F000
F7E000
F7C000
F70000
E00000
4FF800
1FFC00
1FFC00
4FF900
E00380
F00780
F00780
F00780
F00780
F00780
F00780
F00780
F00380
E00180
C00080
800000
ENDCHAR
STARTCHAR 108
ENCODING 108
SWIDTH 1584 0
DWIDTH 22 0
BBX 17 27 2 0
BITMAP
800000
C00000
E00000
F00000
F00000
F00000
F00000
F00000
F00000
F00000
E00000
400000
000000
000000
400000
E00000
F00000
F00000
F00000
F00000
F00000
F00000
F00000
EFFC00
DFFE00
BFFF00
7FFF80
ENDCHAR
STARTCHAR 109
ENCODING 109
SWIDTH 1584 0
DWIDTH 22 0
BBX 17 27 2 0
BITMAP
7FFF00
BFFE80
DFFD80
EFFB80
F00780
F04780
F1E780
F1E780
F1E780
F1E780
E1E380
41E100
01E000
01E000
41E100
E0C380
F00780
F00780
F00780
F00780
F00780
F00780
F00780
F00380
E00180
C00080
800000
ENDCHAR
STARTCHAR 110
ENCODING 110
SWIDTH 1584 0
DWIDTH 22 0
BBX 17 27 2 0
BITMAP
FF0080
DF8180
CF8380
E7C780
F3E780
F1F780
F0F780
F07780
F00780
F00780
E00380
400100
000000
000000
400100
E00380
F00780
F00780
F00780
F00780
F00780
F00780
F00780
F00380
E00180
C00080
800000
ENDCHAR
STARTCHAR 111
ENCODING 111
SWIDTH 1584 0
DWIDTH 22 0
BBX 17 27 2 0
BITMAP
0FF800
1FFC00
7FFF00
FFFF80
F00780
F00780
F00780
F00780
F00780
F00780
E00380
400100
000000
000000
400100
E00380
F00780
F00780
F00780
F00780
F00780
F00780
F00300
6FF800
1FFC00
1FFC00
0FF800
ENDCHAR
STARTCHAR 112
ENCODING 112
SWIDTH 1584 0
DWIDTH 22 0
BBX 17 27 2 0
BITMAP
7FF800
BFFC00
DFFF00
EFFF80
F00780
F00780
F00780
F00780
F00780
F00780
E00380
4FF900
1FFC00
1FFC00
4FF800
E00000
F00000
F00000
F00000
F00000
F00000
F00000
F00000
F00000
E00000
C00000
800000
ENDCHAR
STARTCHAR 113
ENCODING 113
SWIDTH 1584 0
DWIDTH 22 0
BBX 17 27 2 0
BITMAP
0FF800
1FFC00
1FFC00
6FFB00
F00780
F00780
F00780
F00780
F00780
F00780
E00380
400100
000000
400000
E00100
F00380
F00780
F00780
F00780
F03B00
F03E00
F03E00
703F00
279F80
0FCF80
0FC780
078380
ENDCHAR
STARTCHAR 114
ENCODING 114
SWIDTH 1584 0
DWIDTH 22 0
BBX 17 27 2 0
BITMAP
7FF800
BFFC00
DFFF00
EFFF80
F00780
F00780
F00780
F00780
F00780
F00780
E00380
4FF900
1FFC00
1FFC00
4FF800
E00000
F38000
F3C000
F3E000
F3F000
F1F800
F0FC00
F07E00
E03F00
C01F80
800F80
000780
ENDCHAR
STARTCHAR 115
ENCODING 115
SWIDTH 1584 0
DWIDTH 22 0
BBX 17 27 2 0
BITMAP
0FFF00
1FFF80
1FFF00
6FFE00
F00000
F00000
F00000
F00000
F00000
F00000
F00000
EFF800
5FFC00
3FFC00
0FF900
000380
000780
000780
000780
000780
000780
000780
000300
7FF800
FFFC00
7FFC00
3FF800
ENDCHAR
STARTCHAR 116
ENCODING 116
SWIDTH 1584 0
DWIDTH 22 0
BBX 18 27 2 0
BITMAP
7FFF80
FFFFC0
FFFFC0
7FFF80
000000
000000
00C000
01E000
01E000
01E000
01E000
00E000
004000
000000
000000
004000
00E000
01E000
01E000
01E000
01E000
01E000
01E000
01E000
01E000
01E000
00C000
ENDCHAR
STARTCHAR 117
ENCODING 117
SWIDTH 1584 0
DWIDTH 22 0
BBX 17 27 2 0
BITMAP
800080
C00180
E00380
F00780
F00780
F00780
F00780
F00780
F00780
F00780
E00380
400100
000000
000000
400100
E00380
F00780
F00780
F00780
F00780
F00780
F00780
F00300
6FF800
1FFC00
1FFC00
0FF800
ENDCHAR
STARTCHAR 118
ENCODING 118
SWIDTH 1512 0
DWIDTH 21 0
BBX 17 27 2 0
BITMAP
800080
C00180
E00380
F00780
F00780
F00780
F00780
F00780
F00780
F00780
E00380
400100
000000
000000
400600
E00E00
F01E00
F03E00
F07C00
F0F800
F1F000
F3E000
F7E000
F7C000
F78000
F00000
600000
ENDCHAR
STARTCHAR 119
ENCODING 119
SWIDTH 1584 0
DWIDTH 22 0
BBX 17 27 2 0
BITMAP
800080
C00180
E00380
F00780
F00780
F00780
F00780
F00780
F00780
F00780
E0C380
41E100
01E000
01E000
41E100
E1E380
F1E780
F1E780
F1E780
F1E780
F0C780
F04780
F00780
EFFB80
DFFD80
BFFE80
7FFF00
ENDCHAR
STARTCHAR 120
ENCODING 120
SWIDTH 1512 0
DWIDTH 21 0
BBX 18 27 2 0
BITMAP
E001C0
F003C0
F003C0
F807C0
7C0F80
7C0F00
3E1F00
1F3E00
1F3C00
0F3C00
073800
073000
033000
000000
033000
073800
073C00
0F3C00
1F3E00
1E1E00
3E1F00
7C0F80
780F80
F807C0
F003C0
E003C0
E001C0
ENDCHAR
STARTCHAR 121
ENCODING 121
SWIDTH 1584 0
DWIDTH 22 0
BBX 17 27 2 0
BITMAP
800080
C00180
E00380
F00780
F00780
F00780
F00780
F00780
F00780
F00780
F00380
EFF900
5FFC00
3FFC00
0FF900
000380
000780
000780
000780
000780
000780
000780
000300
1FF800
3FFC00
3FFC00
1FF800
ENDCHAR
STARTCHAR 122
ENCODING 122
SWIDTH 1584 0
DWIDTH 22 0
BBX 16 27 3 0
BITMAP
FFFE
7FFF
3FFF
1FFE
0000
001E
001E
003E
007C
00F8
00F8
00F0
00E0
0000
0E00
0E00
1F00
3E00
3E00
7C00
7800
7800
0000
7FF8
FFFC
FFFE
7FFF
ENDCHAR
STARTCHAR 123
ENCODING 123
SWIDTH 1224 0
DWIDTH 17 0
BBX 14 27 2 0
BITMAP
00FC
01F8
0FF0
1EE0
1E00
1E00
1E00
1E00
1E00
1E00
0E00
7400
F800
F800
7400
0E00
1E00
1E00
1E00
1E00
1E00
1E00
0C00
00E0
01F0
01F8
00FC
ENDCHAR
STARTCHAR 124
ENCODING 124
SWIDTH 1008 0
DWIDTH 14 0
BBX 4 34 5 -7
BITMAP
F0
F0
F0
F0
F0
F0
F0
F0
F0
F0
F0
F0
F0
F0
F0
F0
F0
F0
F0
F0
F0
F0
F0
F0
F0
F0
F0
F0
F0
F0
F0
F0
F0
F0
ENDCHAR
STARTCHAR 125
ENCODING 125
SWIDTH 1224 0
DWIDTH 17 0
BBX 14 27 1 0
BITMAP
FC00
3F00
1E00
0CC0
01E0
01E0
01E0
01E0
01E0
01E0
01C0
00B8
007C
007C
00B8
01C0
01E0
01E0
01E0
01E0
01E0
01E0
01E0
0EC0
1F00
3F00
7C00
ENDCHAR
STARTCHAR 126
ENCODING 126
SWIDTH 1296 0
DWIDTH 18 0
BBX 14 6 2 10
BITMAP
7C00
FF0C
FFFC
FFFC
C7FC
81F8
ENDCHAR
STARTCHAR 127
ENCODING 127
SWIDTH 1584 0
DWIDTH 22 0
BBX 9 26 1 1
BITMAP
FF80
FF80
E380
E380
E380
E380
E380
E380
E380
E380
E380
E380
E380
E380
E380
E380
E380
E380
E380
E380
E380
E380
E380
E380
FF80
FF80
ENDCHAR
STARTCHAR 128
ENCODING 128
SWIDTH 0 0
DWIDTH 0 0
BBX 0 0 0 0
BITMAP
ENDCHAR
STARTCHAR 129
ENCODING 129
SWIDTH 0 0
DWIDTH 0 0
BBX 0 0 0 0
BITMAP
ENDCHAR
STARTCHAR 130
ENCODING 130
SWIDTH 0 0
DWIDTH 0 0
BBX 0 0 0 0
BITMAP
ENDCHAR
STARTCHAR 131
ENCODING 131
SWIDTH 0 0
DWIDTH 0 0
BBX 0 0 0 0
BITMAP
ENDCHAR
STARTCHAR 132
ENCODING 132
SWIDTH 0 0
DWIDTH 0 0
BBX 0 0 0 0
BITMAP
ENDCHAR
STARTCHAR 133
ENCODING 133
SWIDTH 0 0
DWIDTH 0 0
BBX 0 0 0 0
BITMAP
ENDCHAR
STARTCHAR 134
ENCODING 134
SWIDTH 0 0
DWIDTH 0 0
BBX 0 0 0 0
BITMAP
ENDCHAR
STARTCHAR 135
ENCODING 135
SWIDTH 0 0
DWIDTH 0 0
BBX 0 0 0 0
BITMAP
ENDCHAR
STARTCHAR 136
ENCODING 136
SWIDTH 0 0
DWIDTH 0 0
BBX 0 0 0 0
BITMAP
ENDCHAR
STARTCHAR 137
ENCODING 137
SWIDTH 0 0
DWIDTH 0 0
BBX 0 0 0 0
BITMAP
ENDCHAR
STARTCHAR 138
ENCODING 138
SWIDTH 0 0
DWIDTH 0 0
BBX 0 0 0 0
BITMAP
ENDCHAR
STARTCHAR 139
ENCODING 139
SWIDTH 0 0
DWIDTH 0 0
BBX 0 0 0 0
BITMAP
ENDCHAR
STARTCHAR 140
ENCODING 140
SWIDTH 0 0
DWIDTH 0 0
BBX 0 0 0 0
BITMAP
ENDCHAR
STARTCHAR 141
ENCODING 141
SWIDTH 0 0
DWIDTH 0 0
BBX 0 0 0 0
BITMAP
ENDCHAR
STARTCHAR 142
ENCODING 142
SWIDTH 0 0
DWIDTH 0 0
BBX 0 0 0 0
BITMAP
ENDCHAR
STARTCHAR 143
ENCODING 143
SWIDTH 0 0
DWIDTH 0 0
BBX 0 0 0 0
BITMAP
ENDCHAR
STARTCHAR 144
ENCODING 144
SWIDTH 0 0
DWIDTH 0 0
BBX 0 0 0 0
BITMAP
ENDCHAR
STARTCHAR 145
ENCODING 145
SWIDTH 0 0
DWIDTH 0 0
BBX 0 0 0 0
BITMAP
ENDCHAR
STARTCHAR 146
ENCODING 146
SWIDTH 0 0
DWIDTH 0 0
BBX 0 0 0 0
BITMAP
ENDCHAR
STARTCHAR 147
ENCODING 147
SWIDTH 0 0
DWIDTH 0 0
BBX 0 0 0 0
BITMAP
ENDCHAR
STARTCHAR 148
ENCODING 148
SWIDTH 0 0
DWIDTH 0 0
BBX 0 0 0 0
BITMAP
ENDCHAR
STARTCHAR 149
ENCODING 149
SWIDTH 0 0
DWIDTH 0 0
BBX 0 0 0 0
BITMAP
ENDCHAR
STARTCHAR 150
ENCODING 150
SWIDTH 0 0
DWIDTH 0 0
BBX 0 0 0 0
BITMAP
ENDCHAR
STARTCHAR 151
ENCODING 151
SWIDTH 0 0
DWIDTH 0 0
BBX 0 0 0 0
BITMAP
ENDCHAR
STARTCHAR 152
ENCODING 152
SWIDTH 0 0
DWIDTH 0 0
BBX 0 0 0 0
BITMAP
ENDCHAR
STARTCHAR 153
ENCODING 153
SWIDTH 0 0
DWIDTH 0 0
BBX 0 0 0 0
BITMAP
ENDCHAR
STARTCHAR 154
ENCODING 154
SWIDTH 0 0
DWIDTH 0 0
BBX 0 0 0 0
BITMAP
ENDCHAR
STARTCHAR 155
ENCODING 155
SWIDTH 0 0
DWIDTH 0 0
BBX 0 0 0 0
BITMAP
ENDCHAR
STARTCHAR 156
ENCODING 156
SWIDTH 0 0
DWIDTH 0 0
BBX 0 0 0 0
BITMAP
ENDCHAR
STARTCHAR 157
ENCODING 157
SWIDTH 0 0
DWIDTH 0 0
BBX 0 0 0 0
BITMAP
ENDCHAR
STARTCHAR 158
ENCODING 158
SWIDTH 0 0
DWIDTH 0 0
BBX 0 0 0 0
BITMAP
ENDCHAR
STARTCHAR 159
ENCODING 159
SWIDTH 0 0
DWIDTH 0 0
BBX 0 0 0 0
BITMAP
ENDCHAR
STARTCHAR 160
ENCODING 160
SWIDTH 1584 0
DWIDTH 22 0
BBX 19 35 1 0
BITMAP
FFFFE0
800020
800020
800020
800020
800020
800020
800020
800020
800020
800020
800020
800020
800020
800020
800020
800020
800020
800020
800020
800020
800020
800020
800020
800020
800020
800020
800020
800020
800020
800020
800020
800020
800020
FFFFE0
ENDCHAR
STARTCHAR 161
ENCODING 161
SWIDTH 1584 0
DWIDTH 22 0
BBX 19 35 1 0
BITMAP
FFFFE0
800020
800020
800020
800020
800020
800020
800020
800020
800020
800020
800020
800020
800020
800020
800020
800020
800020
800020
800020
800020
800020
800020
800020
800020
800020
800020
800020
800020
800020
800020
800020
800020
800020
FFFFE0
ENDCHAR
STARTCHAR 162
ENCODING 162
SWIDTH 1584 0
DWIDTH 22 0
BBX 19 35 1 0
BITMAP
FFFFE0
800020
800020
800020
800020
800020
800020
800020
800020
800020
800020
800020
800020
800020
800020
800020
800020
800020
800020
800020
800020
800020
800020
800020
800020
800020
800020
800020
800020
800020
800020
800020
800020
800020
FFFFE0
ENDCHAR
STARTCHAR 163
ENCODING 163
SWIDTH 1584 0
DWIDTH 22 0
BBX 19 35 1 0
BITMAP
FFFFE0
800020
800020
800020
800020
800020
800020
800020
800020
800020
800020
800020
800020
800020
800020
800020
800020
800020
800020
800020
800020
800020
800020
800020
800020
800020
800020
800020
800020
800020
800020
800020
800020
800020
FFFFE0
ENDCHAR
STARTCHAR 164
ENCODING 164
SWIDTH 1584 0
DWIDTH 22 0
BBX 19 35 1 0
BITMAP
FFFFE0
800020
800020
800020
800020
800020
800020
800020
800020
800020
800020
800020
800020
800020
800020
800020
800020
800020
800020
800020
800020
800020
800020
800020
800020
800020
800020
800020
800020
800020
800020
800020
800020
800020
FFFFE0
ENDCHAR
STARTCHAR 165
ENCODING 165
SWIDTH 1584 0
DWIDTH 22 0
BBX 19 35 1 0
BITMAP
FFFFE0
800020
800020
800020
800020
800020
800020
800020
800020
800020
800020
800020
800020
800020
800020
800020
800020
800020
800020
800020
800020
800020
800020
800020
800020
800020
800020
800020
800020
800020
800020
800020
800020
800020
FFFFE0
ENDCHAR
STARTCHAR 166
ENCODING 166
SWIDTH 1584 0
DWIDTH 22 0
BBX 19 35 1 0
BITMAP
FFFFE0
800020
800020
800020
800020
800020
800020
800020
800020
800020
800020
800020
800020
800020
800020
800020
800020
800020
800020
800020
800020
800020
800020
800020
800020
800020
800020
800020
800020
800020
800020
800020
800020
800020
FFFFE0
ENDCHAR
STARTCHAR 167
ENCODING 167
SWIDTH 1584 0
DWIDTH 22 0
BBX 19 35 1 0
BITMAP
FFFFE0
800020
800020
800020
800020
800020
800020
800020
800020
800020
800020
800020
800020
800020
800020
800020
800020
800020
800020
800020
800020
800020
800020
800020
800020
800020
800020
800020
800020
800020
800020
800020
800020
800020
FFFFE0
ENDCHAR
STARTCHAR 168
ENCODING 168
SWIDTH 1584 0
DWIDTH 22 0
BBX 19 35 1 0
BITMAP
FFFFE0
800020
800020
800020
800020
800020
800020
800020
800020
800020
800020
800020
800020
800020
800020
800020
800020
800020
800020
800020
800020
800020
800020
800020
800020
800020
800020
800020
800020
800020
800020
800020
800020
800020
FFFFE0
ENDCHAR
STARTCHAR 169
ENCODING 169
SWIDTH 1584 0
DWIDTH 22 0
BBX 19 35 1 0
BITMAP
FFFFE0
800020
800020
800020
800020
800020
800020
800020
800020
800020
800020
800020
800020
800020
800020
800020
800020
800020
800020
800020
800020
800020
800020
800020
800020
800020
800020
800020
800020
800020
800020
800020
800020
800020
FFFFE0
ENDCHAR
STARTCHAR 170
ENCODING 170
SWIDTH 1584 0
DWIDTH 22 0
BBX 19 35 1 0
BITMAP
FFFFE0
800020
800020
800020
800020
800020
800020
800020
800020
800020
800020
800020
800020
800020
800020
800020
800020
800020
800020
800020
800020
800020
800020
800020
800020
800020
800020
800020
800020
800020
800020
800020
800020
800020
FFFFE0
ENDCHAR
STARTCHAR 171
ENCODING 171
SWIDTH 1584 0
DWIDTH 22 0
BBX 19 35 1 0
BITMAP
FFFFE0
800020
800020
800020
800020
800020
800020
800020
800020
800020
800020
800020
800020
800020
800020
800020
800020
800020
800020
800020
800020
800020
800020
800020
800020
800020
800020
800020
800020
800020
800020
800020
800020
800020
FFFFE0
ENDCHAR
STARTCHAR 172
ENCODING 172
SWIDTH 1584 0
DWIDTH 22 0
BBX 19 35 1 0
BITMAP
FFFFE0
800020
800020
800020
800020
800020
800020
800020
800020
800020
800020
800020
800020
800020
800020
800020
800020
800020
800020
800020
800020
800020
800020
800020
800020
800020
800020
800020
800020
800020
800020
800020
800020
800020
FFFFE0
ENDCHAR
STARTCHAR 173
ENCODING 173
SWIDTH 1584 0
DWIDTH 22 0
BBX 19 35 1 0
BITMAP
FFFFE0
800020
800020
800020
800020
800020
800020
800020
800020
800020
800020
800020
800020
800020
800020
800020
800020
800020
800020
800020
800020
800020
800020
800020
800020
800020
800020
800020
800020
800020
800020
800020
800020
800020
FFFFE0
ENDCHAR
STARTCHAR 174
ENCODING 174
SWIDTH 1584 0
DWIDTH 22 0
BBX 19 35 1 0
BITMAP
FFFFE0
800020
800020
800020
800020
800020
800020
800020
800020
800020
800020
800020
800020
800020
800020
800020
800020
800020
800020
800020
800020
800020
800020
800020
800020
800020
800020
800020
800020
800020
800020
800020
800020
800020
FFFFE0
ENDCHAR
STARTCHAR 175
ENCODING 175
SWIDTH 1584 0
DWIDTH 22 0
BBX 19 35 1 0
BITMAP
FFFFE0
800020
800020
800020
800020
800020
800020
800020
800020
800020
800020
800020
800020
800020
800020
800020
800020
800020
800020
800020
800020
800020
800020
800020
800020
800020
800020
800020
800020
800020
800020
800020
800020
800020
FFFFE0
ENDCHAR
STARTCHAR 176
ENCODING 176
SWIDTH 1584 0
DWIDTH 22 0
BBX 19 35 1 0
BITMAP
FFFFE0
800020
800020
800020
800020
800020
800020
800020
800020
800020
800020
800020
800020
800020
800020
800020
800020
800020
800020
800020
800020
800020
800020
800020
800020
800020
800020
800020
800020
800020
800020
800020
800020
800020
FFFFE0
ENDCHAR
STARTCHAR 177
ENCODING 177
SWIDTH 1584 0
DWIDTH 22 0
BBX 19 35 1 0
BITMAP
FFFFE0
800020
800020
800020
800020
800020
800020
800020
800020
800020
800020
800020
800020
800020
800020
800020
800020
800020
800020
800020
800020
800020
800020
800020
800020
800020
800020
800020
800020
800020
800020
800020
800020
800020
FFFFE0
ENDCHAR
STARTCHAR 178
ENCODING 178
SWIDTH 1584 0
DWIDTH 22 0
BBX 19 35 1 0
BITMAP
FFFFE0
800020
800020
800020
800020
800020
800020
800020
800020
800020
800020
800020
800020
800020
800020
800020
800020
800020
800020
800020
800020
800020
800020
800020
800020
800020
800020
800020
800020
800020
800020
800020
800020
800020
FFFFE0
ENDCHAR
STARTCHAR 179
ENCODING 179
SWIDTH 1584 0
DWIDTH 22 0
BBX 19 35 1 0
BITMAP
FFFFE0
800020
800020
800020
800020
800020
800020
800020
800020
800020
800020
800020
800020
800020
800020
800020
800020
800020
800020
800020
800020
800020
800020
800020
800020
800020
800020
800020
800020
800020
800020
800020
800020
800020
FFFFE0
ENDCHAR
STARTCHAR 180
ENCODING 180
SWIDTH 1584 0
DWIDTH 22 0
BBX 19 35 1 0
BITMAP
FFFFE0
800020
800020
800020
800020
800020
800020
800020
800020
800020
800020
800020
800020
800020
800020
800020
800020
800020
800020
800020
800020
800020
800020
800020
800020
800020
800020
800020
800020
800020
800020
800020
800020
800020
FFFFE0
ENDCHAR
STARTCHAR 181
ENCODING 181
SWIDTH 1584 0
DWIDTH 22 0
BBX 19 35 1 0
BITMAP
FFFFE0
800020
800020
800020
800020
800020
800020
800020
800020
800020
800020
800020
800020
800020
800020
800020
800020
800020
800020
800020
800020
800020
800020
800020
800020
800020
800020
800020
800020
800020
800020
800020
800020
800020
FFFFE0
ENDCHAR
STARTCHAR 182
ENCODING 182
SWIDTH 1584 0
DWIDTH 22 0
BBX 19 35 1 0
BITMAP
FFFFE0
800020
800020
800020
800020
800020
800020
800020
800020
800020
800020
800020
800020
800020
800020
800020
800020
800020
800020
800020
800020
800020
800020
800020
800020
800020
800020
800020
800020
800020
800020
800020
800020
800020
FFFFE0
ENDCHAR
STARTCHAR 183
ENCODING 183
SWIDTH 1584 0
DWIDTH 22 0
BBX 19 35 1 0
BITMAP
FFFFE0
800020
800020
800020
800020
800020
800020
800020
800020
800020
800020
800020
800020
800020
800020
800020
800020
800020
800020
800020
800020
800020
800020
800020
800020
800020
800020
800020
800020
800020
800020
800020
800020
800020
FFFFE0
ENDCHAR
STARTCHAR 184
ENCODING 184
SWIDTH 1584 0
DWIDTH 22 0
BBX 19 35 1 0
BITMAP
FFFFE0
800020
800020
800020
800020
800020
800020
800020
800020
800020
800020
800020
800020
800020
800020
800020
800020
800020
800020
800020
800020
800020
800020
800020
800020
800020
800020
800020
800020
800020
800020
800020
800020
800020
FFFFE0
ENDCHAR
STARTCHAR 185
ENCODING 185
SWIDTH 1584 0
DWIDTH 22 0
BBX 19 35 1 0
BITMAP
FFFFE0
800020
800020
800020
800020
800020
800020
800020
800020
800020
800020
800020
800020
800020
800020
800020
800020
800020
800020
800020
800020
800020
800020
800020
800020
800020
800020
800020
800020
800020
800020
800020
800020
800020
FFFFE0
ENDCHAR
STARTCHAR 186
ENCODING 186
SWIDTH 1584 0
DWIDTH 22 0
BBX 19 35 1 0
BITMAP
FFFFE0
800020
800020
800020
800020
800020
800020
800020
800020
800020
800020
800020
800020
800020
800020
800020
800020
800020
800020
800020
800020
800020
800020
800020
800020
800020
800020
800020
800020
800020
800020
800020
800020
800020
FFFFE0
ENDCHAR
STARTCHAR 187
ENCODING 187
SWIDTH 1584 0
DWIDTH 22 0
BBX 19 35 1 0
BITMAP
FFFFE0
800020
800020
800020
800020
800020
800020
800020
800020
800020
800020
800020
800020
800020
800020
800020
800020
800020
800020
800020
800020
800020
800020
800020
800020
800020
800020
800020
800020
800020
800020
800020
800020
800020
FFFFE0
ENDCHAR
STARTCHAR 188
ENCODING 188
SWIDTH 1584 0
DWIDTH 22 0
BBX 19 35 1 0
BITMAP
FFFFE0
800020
800020
800020
800020
800020
800020
800020
800020
800020
800020
800020
800020
800020
800020
800020
800020
800020
800020
800020
800020
800020
800020
800020
800020
800020
800020
800020
800020
800020
800020
800020
800020
800020
FFFFE0
ENDCHAR
STARTCHAR 189
ENCODING 189
SWIDTH 1584 0
DWIDTH 22 0
BBX 19 35 1 0
BITMAP
FFFFE0
800020
800020
800020
800020
800020
800020
800020
800020
800020
800020
800020
800020
800020
800020
800020
800020
800020
800020
800020
800020
800020
800020
800020
800020
800020
800020
800020
800020
800020
800020
800020
800020
800020
FFFFE0
ENDCHAR
STARTCHAR 190
ENCODING 190
SWIDTH 1584 0
DWIDTH 22 0
BBX 19 35 1 0
BITMAP
FFFFE0
800020
800020
800020
800020
800020
800020
800020
800020
800020
800020
800020
800020
800020
800020
800020
800020
800020
800020
800020
800020
800020
800020
800020
800020
800020
800020
800020
800020
800020
800020
800020
800020
800020
FFFFE0
ENDCHAR
STARTCHAR 191
ENCODING 191
SWIDTH 1584 0
DWIDTH 22 0
BBX 19 35 1 0
BITMAP
FFFFE0
800020
800020
800020
800020
800020
800020
800020
800020
800020
800020
800020
800020
800020
800020
800020
800020
800020
800020
800020
800020
800020
800020
800020
800020
800020
800020
800020
800020
800020
800020
800020
800020
800020
FFFFE0
ENDCHAR
STARTCHAR 192
ENCODING 192
SWIDTH 1584 0
DWIDTH 22 0
BBX 19 35 1 0
BITMAP
FFFFE0
800020
800020
800020
800020
800020
800020
800020
800020
800020
800020
800020
800020
800020
800020
800020
800020
800020
800020
800020
800020
800020
800020
800020
800020
800020
800020
800020
800020
800020
800020
800020
800020
800020
FFFFE0
ENDCHAR
STARTCHAR 193
ENCODING 193
SWIDTH 1584 0
DWIDTH 22 0
BBX 19 35 1 0
BITMAP
FFFFE0
800020
800020
800020
800020
800020
800020
800020
800020
800020
800020
800020
800020
800020
800020
800020
800020
800020
800020
800020
800020
800020
800020
800020
800020
800020
800020
800020
800020
800020
800020
800020
800020
800020
FFFFE0
ENDCHAR
STARTCHAR 194
ENCODING 194
SWIDTH 1584 0
DWIDTH 22 0
BBX 19 35 1 0
BITMAP
FFFFE0
800020
800020
800020
800020
800020
800020
800020
800020
800020
800020
800020
800020
800020
800020
800020
800020
800020
800020
800020
800020
800020
800020
800020
800020
800020
800020
800020
800020
800020
800020
800020
800020
800020
FFFFE0
ENDCHAR
STARTCHAR 195
ENCODING 195
SWIDTH 1584 0
DWIDTH 22 0
BBX 19 35 1 0
BITMAP
FFFFE0
800020
800020
800020
800020
800020
800020
800020
800020
800020
800020
800020
800020
800020
800020
800020
800020
800020
800020
800020
800020
800020
800020
800020
800020
800020
800020
800020
800020
800020
800020
800020
800020
800020
FFFFE0
ENDCHAR
STARTCHAR 196
ENCODING 196
SWIDTH 1584 0
DWIDTH 22 0
BBX 19 35 1 0
BITMAP
FFFFE0
800020
800020
800020
800020
800020
800020
800020
800020
800020
800020
800020
800020
800020
800020
800020
800020
800020
800020
800020
800020
800020
800020
800020
800020
800020
800020
800020
800020
800020
800020
800020
800020
800020
FFFFE0
ENDCHAR
STARTCHAR 197
ENCODING 197
SWIDTH 1584 0
DWIDTH 22 0
BBX 19 35 1 0
BITMAP
FFFFE0
800020
800020
800020
800020
800020
800020
800020
800020
800020
800020
800020
800020
800020
800020
800020
800020
800020
800020
800020
800020
800020
800020
800020
800020
800020
800020
800020
800020
800020
800020
800020
800020
800020
FFFFE0
ENDCHAR
STARTCHAR 198
ENCODING 198
SWIDTH 1584 0
DWIDTH 22 0
BBX 19 35 1 0
BITMAP
FFFFE0
800020
800020
800020
800020
800020
800020
800020
800020
800020
800020
800020
800020
800020
800020
800020
800020
800020
800020
800020
800020
800020
800020
800020
800020
800020
800020
800020
800020
800020
800020
800020
800020
800020
FFFFE0
ENDCHAR
STARTCHAR 199
ENCODING 199
SWIDTH 1584 0
DWIDTH 22 0
BBX 19 35 1 0
BITMAP
FFFFE0
800020
800020
800020
800020
800020
800020
800020
800020
800020
800020
800020
800020
800020
800020
800020
800020
800020
800020
800020
800020
800020
800020
800020
800020
800020
800020
800020
800020
800020
800020
800020
800020
800020
FFFFE0
ENDCHAR
STARTCHAR 200
ENCODING 200
SWIDTH 1584 0
DWIDTH 22 0
BBX 19 35 1 0
BITMAP
FFFFE0
800020
800020
800020
800020
800020
800020
800020
800020
800020
800020
800020
800020
800020
800020
800020
800020
800020
800020
800020
800020
800020
800020
800020
800020
800020
800020
800020
800020
800020
800020
800020
800020
800020
FFFFE0
ENDCHAR
STARTCHAR 201
ENCODING 201
SWIDTH 1584 0
DWIDTH 22 0
BBX 19 35 1 0
BITMAP
FFFFE0
800020
800020
800020
800020
800020
800020
800020
800020
800020
800020
800020
800020
800020
800020
800020
800020
800020
800020
800020
800020
800020
800020
800020
800020
800020
800020
800020
800020
800020
800020
800020
800020
800020
FFFFE0
ENDCHAR
STARTCHAR 202
ENCODING 202
SWIDTH 1584 0
DWIDTH 22 0
BBX 19 35 1 0
BITMAP
FFFFE0
800020
800020
800020
800020
800020
800020
800020
800020
800020
800020
800020
800020
800020
800020
800020
800020
800020
800020
800020
800020
800020
800020
800020
800020
800020
800020
800020
800020
800020
800020
800020
800020
800020
FFFFE0
ENDCHAR
STARTCHAR 203
ENCODING 203
SWIDTH 1584 0
DWIDTH 22 0
BBX 19 35 1 0
BITMAP
FFFFE0
800020
800020
800020
800020
800020
800020
800020
800020
800020
800020
800020
800020
800020
800020
800020
800020
800020
800020
800020
800020
800020
800020
800020
800020
800020
800020
800020
800020
800020
800020
800020
800020
800020
FFFFE0
ENDCHAR
STARTCHAR 204
ENCODING 204
SWIDTH 1584 0
DWIDTH 22 0
BBX 19 35 1 0
BITMAP
FFFFE0
800020
800020
800020
800020
800020
800020
800020
800020
800020
800020
800020
800020
800020
800020
800020
800020
800020
800020
800020
800020
800020
800020
800020
800020
800020
800020
800020
800020
800020
800020
800020
800020
800020
FFFFE0
ENDCHAR
STARTCHAR 205
ENCODING 205
SWIDTH 1584 0
DWIDTH 22 0
BBX 19 35 1 0
BITMAP
FFFFE0
800020
800020
800020
800020
800020
800020
800020
800020
800020
800020
800020
800020
800020
800020
800020
800020
800020
800020
800020
800020
800020
800020
800020
800020
800020
800020
800020
800020
800020
800020
800020
800020
800020
FFFFE0
ENDCHAR
STARTCHAR 206
ENCODING 206
SWIDTH 1584 0
DWIDTH 22 0
BBX 19 35 1 0
BITMAP
FFFFE0
800020
800020
800020
800020
800020
800020
800020
800020
800020
800020
800020
800020
800020
800020
800020
800020
800020
800020
800020
800020
800020
800020
800020
800020
800020
800020
800020
800020
800020
800020
800020
800020
800020
FFFFE0
ENDCHAR
STARTCHAR 207
ENCODING 207
SWIDTH 1584 0
DWIDTH 22 0
BBX 19 35 1 0
BITMAP
FFFFE0
800020
800020
800020
800020
800020
800020
800020
800020
800020
800020
800020
800020
800020
800020
800020
800020
800020
800020
800020
800020
800020
800020
800020
800020
800020
800020
800020
800020
800020
800020
800020
800020
800020
FFFFE0
ENDCHAR
STARTCHAR 208
ENCODING 208
SWIDTH 1584 0
DWIDTH 22 0
BBX 19 35 1 0
BITMAP
FFFFE0
800020
800020
800020
800020
800020
800020
800020
800020
800020
800020
800020
800020
800020
800020
800020
800020
800020
800020
800020
800020
800020
800020
800020
800020
800020
800020
800020
800020
800020
800020
800020
800020
800020
FFFFE0
ENDCHAR
STARTCHAR 209
ENCODING 209
SWIDTH 1584 0
DWIDTH 22 0
BBX 19 35 1 0
BITMAP
FFFFE0
800020
800020
800020
800020
800020
800020
800020
800020
800020
800020
800020
800020
800020
800020
800020
800020
800020
800020
800020
800020
800020
800020
800020
800020
800020
800020
800020
800020
800020
800020
800020
800020
800020
FFFFE0
ENDCHAR
STARTCHAR 210
ENCODING 210
SWIDTH 1584 0
DWIDTH 22 0
BBX 19 35 1 0
BITMAP
FFFFE0
800020
800020
800020
800020
800020
800020
800020
800020
800020
800020
800020
800020
800020
800020
800020
800020
800020
800020
800020
800020
800020
800020
800020
800020
800020
800020
800020
800020
800020
800020
800020
800020
800020
FFFFE0
ENDCHAR
STARTCHAR 211
ENCODING 211
SWIDTH 1584 0
DWIDTH 22 0
BBX 19 35 1 0
BITMAP
FFFFE0
800020
800020
800020
800020
800020
800020
800020
800020
800020
800020
800020
800020
800020
800020
800020
800020
800020
800020
800020
800020
800020
800020
800020
800020
800020
800020
800020
800020
800020
800020
800020
800020
800020
FFFFE0
ENDCHAR
STARTCHAR 212
ENCODING 212
SWIDTH 1584 0
DWIDTH 22 0
BBX 19 35 1 0
BITMAP
FFFFE0
800020
800020
800020
800020
800020
800020
800020
800020
800020
800020
800020
800020
800020
800020
800020
800020
800020
800020
800020
800020
800020
800020
800020
800020
800020
800020
800020
800020
800020
800020
800020
800020
800020
FFFFE0
ENDCHAR
STARTCHAR 213
ENCODING 213
SWIDTH 1584 0
DWIDTH 22 0
BBX 19 35 1 0
BITMAP
FFFFE0
800020
800020
800020
800020
800020
800020
800020
800020
800020
800020
800020
800020
800020
800020
800020
800020
800020
800020
800020
800020
800020
800020
800020
800020
800020
800020
800020
800020
800020
800020
800020
800020
800020
FFFFE0
ENDCHAR
STARTCHAR 214
ENCODING 214
SWIDTH 1584 0
DWIDTH 22 0
BBX 19 35 1 0
BITMAP
FFFFE0
800020
800020
800020
800020
800020
800020
800020
800020
800020
800020
800020
800020
800020
800020
800020
800020
800020
800020
800020
800020
800020
800020
800020
800020
800020
800020
800020
800020
800020
800020
800020
800020
800020
FFFFE0
ENDCHAR
STARTCHAR 215
ENCODING 215
SWIDTH 1584 0
DWIDTH 22 0
BBX 19 35 1 0
BITMAP
FFFFE0
800020
800020
800020
800020
800020
800020
800020
800020
800020
800020
800020
800020
800020
800020
800020
800020
800020
800020
800020
800020
800020
800020
800020
800020
800020
800020
800020
800020
800020
800020
800020
800020
800020
FFFFE0
ENDCHAR
STARTCHAR 216
ENCODING 216
SWIDTH 1584 0
DWIDTH 22 0
BBX 19 35 1 0
BITMAP
FFFFE0
800020
800020
800020
800020
800020
800020
800020
800020
800020
800020
800020
800020
800020
800020
800020
800020
800020
800020
800020
800020
800020
800020
800020
800020
800020
800020
800020
800020
800020
800020
800020
800020
800020
FFFFE0
ENDCHAR
STARTCHAR 217
ENCODING 217
SWIDTH 1584 0
DWIDTH 22 0
BBX 19 35 1 0
BITMAP
FFFFE0
800020
800020
800020
800020
800020
800020
800020
800020
800020
800020
800020
800020
800020
800020
800020
800020
800020
800020
800020
800020
800020
800020
800020
800020
800020
800020
800020
800020
800020
800020
800020
800020
800020
FFFFE0
ENDCHAR
STARTCHAR 218
ENCODING 218
SWIDTH 1584 0
DWIDTH 22 0
BBX 19 35 1 0
BITMAP
FFFFE0
800020
800020
800020
800020
800020
800020
800020
800020
800020
800020
800020
800020
800020
800020
800020
800020
800020
800020
800020
800020
800020
800020
800020
800020
800020
800020
800020
800020
800020
800020
800020
800020
800020
FFFFE0
ENDCHAR
STARTCHAR 219
ENCODING 219
SWIDTH 1584 0
DWIDTH 22 0
BBX 19 35 1 0
BITMAP
FFFFE0
800020
800020
800020
800020
800020
800020
800020
800020
800020
800020
800020
800020
800020
800020
800020
800020
800020
800020
800020
800020
800020
800020
800020
800020
800020
800020
800020
800020
800020
800020
800020
800020
800020
FFFFE0
ENDCHAR
STARTCHAR 220
ENCODING 220
SWIDTH 1584 0
DWIDTH 22 0
BBX 19 35 1 0
BITMAP
FFFFE0
800020
800020
800020
800020
800020
800020
800020
800020
800020
800020
800020
800020
800020
800020
800020
800020
800020
800020
800020
800020
800020
800020
800020
800020
800020
800020
800020
800020
800020
800020
800020
800020
800020
FFFFE0
ENDCHAR
STARTCHAR 221
ENCODING 221
SWIDTH 1584 0
DWIDTH 22 0
BBX 19 35 1 0
BITMAP
FFFFE0
800020
800020
800020
800020
800020
800020
800020
800020
800020
800020
800020
800020
800020
800020
800020
800020
800020
800020
800020
800020
800020
800020
800020
800020
800020
800020
800020
800020
800020
800020
800020
800020
800020
FFFFE0
ENDCHAR
STARTCHAR 222
ENCODING 222
SWIDTH 1584 0
DWIDTH 22 0
BBX 19 35 1 0
BITMAP
FFFFE0
800020
800020
800020
800020
800020
800020
800020
800020
800020
800020
800020
800020
800020
800020
800020
800020
800020
800020
800020
800020
800020
800020
800020
800020
800020
800020
800020
800020
800020
800020
800020
800020
800020
FFFFE0
ENDCHAR
STARTCHAR 223
ENCODING 223
SWIDTH 1584 0
DWIDTH 22 0
BBX 19 35 1 0
BITMAP
FFFFE0
800020
800020
800020
800020
800020
800020
800020
800020
800020
800020
800020
800020
800020
800020
800020
800020
800020
800020
800020
800020
800020
800020
800020
800020
800020
800020
800020
800020
800020
800020
800020
800020
800020
FFFFE0
ENDCHAR
STARTCHAR 224
ENCODING 224
SWIDTH 1584 0
DWIDTH 22 0
BBX 19 35 1 0
BITMAP
FFFFE0
800020
800020
800020
800020
800020
800020
800020
800020
800020
800020
800020
800020
800020
800020
800020
800020
800020
800020
800020
800020
800020
800020
800020
800020
800020
800020
800020
800020
800020
800020
800020
800020
800020
FFFFE0
ENDCHAR
STARTCHAR 225
ENCODING 225
SWIDTH 1584 0
DWIDTH 22 0
BBX 19 35 1 0
BITMAP
FFFFE0
800020
800020
800020
800020
800020
800020
800020
800020
800020
800020
800020
800020
800020
800020
800020
800020
800020
800020
800020
800020
800020
800020
800020
800020
800020
800020
800020
800020
800020
800020
800020
800020
800020
FFFFE0
ENDCHAR
STARTCHAR 226
ENCODING 226
SWIDTH 1584 0
DWIDTH 22 0
BBX 19 35 1 0
BITMAP
FFFFE0
800020
800020
800020
800020
800020
800020
800020
800020
800020
800020
800020
800020
800020
800020
800020
800020
800020
800020
800020
800020
800020
800020
800020
800020
800020
800020
800020
800020
800020
800020
800020
800020
800020
FFFFE0
ENDCHAR
STARTCHAR 227
ENCODING 227
SWIDTH 1584 0
DWIDTH 22 0
BBX 19 35 1 0
BITMAP
FFFFE0
800020
800020
800020
800020
800020
800020
800020
800020
800020
800020
800020
800020
800020
800020
800020
800020
800020
800020
800020
800020
800020
800020
800020
800020
800020
800020
800020
800020
800020
800020
800020
800020
800020
FFFFE0
ENDCHAR
STARTCHAR 228
ENCODING 228
SWIDTH 1584 0
DWIDTH 22 0
BBX 19 35 1 0
BITMAP
FFFFE0
800020
800020
800020
800020
800020
800020
800020
800020
800020
800020
800020
800020
800020
800020
800020
800020
800020
800020
800020
800020
800020
800020
800020
800020
800020
800020
800020
800020
800020
800020
800020
800020
800020
FFFFE0
ENDCHAR
STARTCHAR 229
ENCODING 229
SWIDTH 1584 0
DWIDTH 22 0
BBX 19 35 1 0
BITMAP
FFFFE0
800020
800020
800020
800020
800020
800020
800020
800020
800020
800020
800020
800020
800020
800020
800020
800020
800020
800020
800020
800020
800020
800020
800020
800020
800020
800020
800020
800020
800020
800020
800020
800020
800020
FFFFE0
ENDCHAR
STARTCHAR 230
ENCODING 230
SWIDTH 1584 0
DWIDTH 22 0
BBX 19 35 1 0
BITMAP
FFFFE0
800020
800020
800020
800020
800020
800020
800020
800020
800020
800020
800020
800020
800020
800020
800020
800020
800020
800020
800020
800020
800020
800020
800020
800020
800020
800020
800020
800020
800020
800020
800020
800020
800020
FFFFE0
ENDCHAR
STARTCHAR 231
ENCODING 231
SWIDTH 1584 0
DWIDTH 22 0
BBX 19 35 1 0
BITMAP
FFFFE0
800020
800020
800020
800020
800020
800020
800020
800020
800020
800020
800020
800020
800020
800020
800020
800020
800020
800020
800020
800020
800020
800020
800020
800020
800020
800020
800020
800020
800020
800020
800020
800020
800020
FFFFE0
ENDCHAR
STARTCHAR 232
ENCODING 232
SWIDTH 1584 0
DWIDTH 22 0
BBX 19 35 1 0
BITMAP
FFFFE0
800020
800020
800020
800020
800020
800020
800020
800020
800020
800020
800020
800020
800020
800020
800020
800020
800020
800020
800020
800020
800020
800020
800020
800020
800020
800020
800020
800020
800020
800020
800020
800020
800020
FFFFE0
ENDCHAR
STARTCHAR 233
ENCODING 233
SWIDTH 1584 0
DWIDTH 22 0
BBX 19 35 1 0
BITMAP
FFFFE0
800020
800020
800020
800020
800020
800020
800020
800020
800020
800020
800020
800020
800020
800020
800020
800020
800020
800020
800020
800020
800020
800020
800020
800020
800020
800020
800020
800020
800020
800020
800020
800020
800020
FFFFE0
ENDCHAR
STARTCHAR 234
ENCODING 234
SWIDTH 1584 0
DWIDTH 22 0
BBX 19 35 1 0
BITMAP
FFFFE0
800020
800020
800020
800020
800020
800020
800020
800020
800020
800020
800020
800020
800020
800020
800020
800020
800020
800020
800020
800020
800020
800020
800020
800020
800020
800020
800020
800020
800020
800020
800020
800020
800020
FFFFE0
ENDCHAR
STARTCHAR 235
ENCODING 235
SWIDTH 1584 0
DWIDTH 22 0
BBX 19 35 1 0
BITMAP
FFFFE0
800020
800020
800020
800020
800020
800020
800020
800020
800020
800020
800020
800020
800020
800020
800020
800020
800020
800020
800020
800020
800020
800020
800020
800020
800020
800020
800020
800020
800020
800020
800020
800020
800020
FFFFE0
ENDCHAR
STARTCHAR 236
ENCODING 236
SWIDTH 1584 0
DWIDTH 22 0
BBX 19 35 1 0
BITMAP
FFFFE0
800020
800020
800020
800020
800020
800020
800020
800020
800020
800020
800020
800020
800020
800020
800020
800020
800020
800020
800020
800020
800020
800020
800020
800020
800020
800020
800020
800020
800020
800020
800020
800020
800020
FFFFE0
ENDCHAR
STARTCHAR 237
ENCODING 237
SWIDTH 1584 0
DWIDTH 22 0
BBX 19 35 1 0
BITMAP
FFFFE0
800020
800020
800020
800020
800020
800020
800020
800020
800020
800020
800020
800020
800020
800020
800020
800020
800020
800020
800020
800020
800020
800020
800020
800020
800020
800020
800020
800020
800020
800020
800020
800020
800020
FFFFE0
ENDCHAR
STARTCHAR 238
ENCODING 238
SWIDTH 1584 0
DWIDTH 22 0
BBX 19 35 1 0
BITMAP
FFFFE0
800020
800020
800020
800020
800020
800020
800020
800020
800020
800020
800020
800020
800020
800020
800020
800020
800020
800020
800020
800020
800020
800020
800020
800020
800020
800020
800020
800020
800020
800020
800020
800020
800020
FFFFE0
ENDCHAR
STARTCHAR 239
ENCODING 239
SWIDTH 1584 0
DWIDTH 22 0
BBX 19 35 1 0
BITMAP
FFFFE0
800020
800020
800020
800020
800020
800020
800020
800020
800020
800020
800020
800020
800020
800020
800020
800020
800020
800020
800020
800020
800020
800020
800020
800020
800020
800020
800020
800020
800020
800020
800020
800020
800020
FFFFE0
ENDCHAR
STARTCHAR 240
ENCODING 240
SWIDTH 1584 0
DWIDTH 22 0
BBX 19 35 1 0
BITMAP
FFFFE0
800020
800020
800020
800020
800020
800020
800020
800020
800020
800020
800020
800020
800020
800020
800020
800020
800020
800020
800020
800020
800020
800020
800020
800020
800020
800020
800020
800020
800020
800020
800020
800020
800020
FFFFE0
ENDCHAR
STARTCHAR 241
ENCODING 241
SWIDTH 1584 0
DWIDTH 22 0
BBX 19 35 1 0
BITMAP
FFFFE0
800020
800020
800020
800020
800020
800020
800020
800020
800020
800020
800020
800020
800020
800020
800020
800020
800020
800020
800020
800020
800020
800020
800020
800020
800020
800020
800020
800020
800020
800020
800020
800020
800020
FFFFE0
ENDCHAR
STARTCHAR 242
ENCODING 242
SWIDTH 1584 0
DWIDTH 22 0
BBX 19 35 1 0
BITMAP
FFFFE0
800020
800020
800020
800020
800020
800020
800020
800020
800020
800020
800020
800020
800020
800020
800020
800020
800020
800020
800020
800020
800020
800020
800020
800020
800020
800020
800020
800020
800020
800020
800020
800020
800020
FFFFE0
ENDCHAR
STARTCHAR 243
ENCODING 243
SWIDTH 1584 0
DWIDTH 22 0
BBX 19 35 1 0
BITMAP
FFFFE0
800020
800020
800020
800020
800020
800020
800020
800020
800020
800020
800020
800020
800020
800020
800020
800020
800020
800020
800020
800020
800020
800020
800020
800020
800020
800020
800020
800020
800020
800020
800020
800020
800020
FFFFE0
ENDCHAR
STARTCHAR 244
ENCODING 244
SWIDTH 1584 0
DWIDTH 22 0
BBX 19 35 1 0
BITMAP
FFFFE0
800020
800020
800020
800020
800020
800020
800020
800020
800020
800020
800020
800020
800020
800020
800020
800020
800020
800020
800020
800020
800020
800020
800020
800020
800020
800020
800020
800020
800020
800020
800020
800020
800020
FFFFE0
ENDCHAR
STARTCHAR 245
ENCODING 245
SWIDTH 1584 0
DWIDTH 22 0
BBX 19 35 1 0
BITMAP
FFFFE0
800020
800020
800020
800020
800020
800020
800020
800020
800020
800020
800020
800020
800020
800020
800020
800020
800020
800020
800020
800020
800020
800020
800020
800020
800020
800020
800020
800020
800020
800020
800020
800020
800020
FFFFE0
ENDCHAR
STARTCHAR 246
ENCODING 246
SWIDTH 1584 0
DWIDTH 22 0
BBX 19 35 1 0
BITMAP
FFFFE0
800020
800020
800020
800020
800020
800020
800020
800020
800020
800020
800020
800020
800020
800020
800020
800020
800020
800020
800020
800020
800020
800020
800020
800020
800020
800020
800020
800020
800020
800020
800020
800020
800020
FFFFE0
ENDCHAR
STARTCHAR 247
ENCODING 247
SWIDTH 1584 0
DWIDTH 22 0
BBX 19 35 1 0
BITMAP
FFFFE0
800020
800020
800020
800020
800020
800020
800020
800020
800020
800020
800020
800020
800020
800020
800020
800020
800020
800020
800020
800020
800020
800020
800020
800020
800020
800020
800020
800020
800020
800020
800020
800020
800020
FFFFE0
ENDCHAR
STARTCHAR 248
ENCODING 248
SWIDTH 1584 0
DWIDTH 22 0
BBX 19 35 1 0
BITMAP
FFFFE0
800020
800020
800020
800020
800020
800020
800020
800020
800020
800020
800020
800020
800020
800020
800020
800020
800020
800020
800020
800020
800020
800020
800020
800020
800020
800020
800020
800020
800020
800020
800020
800020
800020
FFFFE0
ENDCHAR
STARTCHAR 249
ENCODING 249
SWIDTH 1584 0
DWIDTH 22 0
BBX 19 35 1 0
BITMAP
FFFFE0
800020
800020
800020
800020
800020
800020
800020
800020
800020
800020
800020
800020
800020
800020
800020
800020
800020
800020
800020
800020
800020
800020
800020
800020
800020
800020
800020
800020
800020
800020
800020
800020
800020
FFFFE0
ENDCHAR
STARTCHAR 250
ENCODING 250
SWIDTH 1584 0
DWIDTH 22 0
BBX 19 35 1 0
BITMAP
FFFFE0
800020
800020
800020
800020
800020
800020
800020
800020
800020
800020
800020
800020
800020
800020
800020
800020
800020
800020
800020
800020
800020
800020
800020
800020
800020
800020
800020
800020
800020
800020
800020
800020
800020
FFFFE0
ENDCHAR
STARTCHAR 251
ENCODING 251
SWIDTH 1584 0
DWIDTH 22 0
BBX 19 35 1 0
BITMAP
FFFFE0
800020
800020
800020
800020
800020
800020
800020
800020
800020
800020
800020
800020
800020
800020
800020
800020
800020
800020
800020
800020
800020
800020
800020
800020
800020
800020
800020
800020
800020
800020
800020
800020
800020
FFFFE0
ENDCHAR
STARTCHAR 252
ENCODING 252
SWIDTH 1584 0
DWIDTH 22 0
BBX 19 35 1 0
BITMAP
FFFFE0
800020
800020
800020
800020
800020
800020
800020
800020
800020
800020
800020
800020
800020
800020
800020
800020
800020
800020
800020
800020
800020
800020
800020
800020
800020
800020
800020
800020
800020
800020
800020
800020
800020
FFFFE0
ENDCHAR
STARTCHAR 253
ENCODING 253
SWIDTH 1584 0
DWIDTH 22 0
BBX 19 35 1 0
BITMAP
FFFFE0
800020
800020
800020
800020
800020
800020
800020
800020
800020
800020
800020
800020
800020
800020
800020
800020
800020
800020
800020
800020
800020
800020
800020
800020
800020
800020
800020
800020
800020
800020
800020
800020
800020
FFFFE0
ENDCHAR
STARTCHAR 254
ENCODING 254
SWIDTH 1584 0
DWIDTH 22 0
BBX 19 35 1 0
BITMAP
FFFFE0
800020
800020
800020
800020
800020
800020
800020
800020
800020
800020
800020
800020
800020
800020
800020
800020
800020
800020
800020
800020
800020
800020
800020
800020
800020
800020
800020
800020
800020
800020
800020
800020
800020
FFFFE0
ENDCHAR
STARTCHAR 255
ENCODING 255
SWIDTH 1584 0
DWIDTH 22 0
BBX 19 35 1 0
BITMAP
FFFFE0
800020
800020
800020
800020
800020
800020
800020
800020
800020
800020
800020
800020
800020
800020
800020
800020
800020
800020
800020
800020
800020
800020
800020
800020
800020
800020
800020
800020
800020
800020
800020
800020
800020
FFFFE0
ENDCHAR
ENDFONT
